REM DIRINDEX 1\2,1\3,1\4,1\5,1\6,1\7,1\8
REM DIRNAME cjc150,folder01,folder02,folder03,folder04,folder05,folder06,folder07
TITLE ""
FILE "009 ‚Å‚é•¶79.mp3" MP3
  TRACK 01 AUDIO
    TITLE "0:"
    INDEX 01 00:00:00
  TRACK 02 AUDIO
    TITLE "8:cjc150_3802"
    INDEX 01 00:00:01
  TRACK 03 AUDIO
    TITLE "0:"
    INDEX 01 00:01:64
  TRACK 04 AUDIO
    TITLE "2:cjc150_3803"
    INDEX 01 00:02:45
  TRACK 05 AUDIO
    TITLE "0:"
    INDEX 01 00:09:32
  TRACK 06 AUDIO
    TITLE "8:cjc150_3804"
    INDEX 01 00:10:65
  TRACK 07 AUDIO
    TITLE "0:"
    INDEX 01 00:13:41
  TRACK 08 AUDIO
    TITLE "3:cjc150_3805"
    INDEX 01 00:14:29
  TRACK 09 AUDIO
    TITLE "3:cjc150_3806"
    INDEX 01 00:15:72
  TRACK 10 AUDIO
    TITLE "3:cjc150_3807"
    INDEX 01 00:17:33
  TRACK 11 AUDIO
    TITLE "3:cjc150_3808"
    INDEX 01 00:19:26
  TRACK 12 AUDIO
    TITLE "3:cjc150_3809"
    INDEX 01 00:21:21
  TRACK 13 AUDIO
    TITLE "3:cjc150_3810"
    INDEX 01 00:23:36
  TRACK 14 AUDIO
    TITLE "3:cjc150_3811"
    INDEX 01 00:25:62
  TRACK 15 AUDIO
    TITLE "3:cjc150_3812"
    INDEX 01 00:28:47
  TRACK 16 AUDIO
    TITLE "8:cjc150_3813"
    INDEX 01 00:31:37
  TRACK 17 AUDIO
    TITLE "0:"
    INDEX 01 00:34:14
  TRACK 18 AUDIO
    TITLE "4:cjc150_3814"
    INDEX 01 00:35:06
  TRACK 19 AUDIO
    TITLE "4:cjc150_3815"
    INDEX 01 00:37:63
  TRACK 20 AUDIO
    TITLE "4:cjc150_3816"
    INDEX 01 00:41:16
  TRACK 21 AUDIO
    TITLE "4:cjc150_3817"
    INDEX 01 00:43:29
  TRACK 22 AUDIO
    TITLE "4:cjc150_3818"
    INDEX 01 00:46:13
  TRACK 23 AUDIO
    TITLE "4:cjc150_3819"
    INDEX 01 00:48:71
  TRACK 24 AUDIO
    TITLE "8:cjc150_3820"
    INDEX 01 00:52:18
  TRACK 25 AUDIO
    TITLE "0:"
    INDEX 01 00:55:12
  TRACK 26 AUDIO
    TITLE "5:cjc150_3821"
    INDEX 01 00:56:02
  TRACK 27 AUDIO
    TITLE "5:cjc150_3822"
    INDEX 01 00:57:23
  TRACK 28 AUDIO
    TITLE "5:cjc150_3823"
    INDEX 01 00:59:47
  TRACK 29 AUDIO
    TITLE "5:cjc150_3824"
    INDEX 01 01:01:13
  TRACK 30 AUDIO
    TITLE "5:cjc150_3825"
    INDEX 01 01:02:46
  TRACK 31 AUDIO
    TITLE "5:cjc150_3826"
    INDEX 01 01:04:54
  TRACK 32 AUDIO
    TITLE "5:cjc150_3827"
    INDEX 01 01:07:33
  TRACK 33 AUDIO
    TITLE "5:cjc150_3828"
    INDEX 01 01:09:24
  TRACK 34 AUDIO
    TITLE "5:cjc150_3829"
    INDEX 01 01:11:11
  TRACK 35 AUDIO
    TITLE "5:cjc150_3830"
    INDEX 01 01:12:46
  TRACK 36 AUDIO
    TITLE "5:cjc150_3831"
    INDEX 01 01:15:52
  TRACK 37 AUDIO
    TITLE "5:cjc150_3832"
    INDEX 01 01:17:71
  TRACK 38 AUDIO
    TITLE "5:cjc150_3833"
    INDEX 01 01:20:10
  TRACK 39 AUDIO
    TITLE "5:cjc150_3834"
    INDEX 01 01:23:18
  TRACK 40 AUDIO
    TITLE "5:cjc150_3835"
    INDEX 01 01:26:68
  TRACK 41 AUDIO
    TITLE "5:cjc150_3836"
    INDEX 01 01:29:52
  TRACK 42 AUDIO
    TITLE "8:cjc150_3837"
    INDEX 01 01:32:35
  TRACK 43 AUDIO
    TITLE "0:"
    INDEX 01 01:35:14
  TRACK 44 AUDIO
    TITLE "6:cjc150_3838"
    INDEX 01 01:36:00
  TRACK 45 AUDIO
    TITLE "6:cjc150_3839"
    INDEX 01 01:38:49
  TRACK 46 AUDIO
    TITLE "6:cjc150_3840"
    INDEX 01 01:42:24
  TRACK 47 AUDIO
    TITLE "6:cjc150_3841"
    INDEX 01 01:45:06
  TRACK 48 AUDIO
    TITLE "6:cjc150_3842"
    INDEX 01 01:47:60
  TRACK 49 AUDIO
    TITLE "6:cjc150_3843"
    INDEX 01 01:49:20
  TRACK 50 AUDIO
    TITLE "6:cjc150_3844"
    INDEX 01 01:52:22
  TRACK 51 AUDIO
    TITLE "6:cjc150_3845"
    INDEX 01 01:54:41
  TRACK 52 AUDIO
    TITLE "6:cjc150_3846"
    INDEX 01 01:56:57
  TRACK 53 AUDIO
    TITLE "6:cjc150_3847"
    INDEX 01 01:59:67
  TRACK 54 AUDIO
    TITLE "6:cjc150_3848"
    INDEX 01 02:03:38
  TRACK 55 AUDIO
    TITLE "6:cjc150_3849"
    INDEX 01 02:06:22
  TRACK 56 AUDIO
    TITLE "8:cjc150_3850"
    INDEX 01 02:08:31
  TRACK 57 AUDIO
    TITLE "0:"
    INDEX 01 02:10:10
  TRACK 58 AUDIO
    TITLE "7:cjc150_3851"
    INDEX 01 02:11:00
  TRACK 59 AUDIO
    TITLE "7:cjc150_3852"
    INDEX 01 02:17:61
  TRACK 60 AUDIO
    TITLE "0:"
    INDEX 01 02:24:46
